{
  "accessors": [
    {
      "bufferView": 2,
      "componentType": 5126,
      "count": 65532,
      "max": [
        4.495532035827637,
        8.717879295349121,
        18.424301147460938
      ],
      "min": [
        -6.262007236480713,
        -5.959843158721924,
        0.026607999578118324
      ],
      "type": "VEC3"
    },
    {
      "bufferView": 2,
      "byteOffset": 786384,
      "componentType": 5126,
      "count": 65532,
      "max": [
        1.0,
        0.9999986886978149,
        0.99986732006073
      ],
      "min": [
        -0.9999996423721313,
        -0.9999996423721313,
        -0.9999052286148071
      ],
      "type": "VEC3"
    },
    {
      "bufferView": 1,
      "componentType": 5126,
      "count": 65532,
      "max": [
        0.9977899789810181,
        0.9962630271911621
      ],
      "min": [
        0.006750999949872494,
        0.016163000836968422
      ],
      "type": "VEC2"
    },
    {
      "bufferView": 0,
      "componentType": 5125,
      "count": 320331,
      "type": "SCALAR"
    },
    {
      "bufferView": 2,
      "byteOffset": 1572768,
      "componentType": 5126,
      "count": 65532,
      "max": [
        4.525906085968018,
        6.631947994232178,
        14.321091651916504
      ],
      "min": [
        -6.09353494644165,
        -6.173672199249268,
        0.02709200046956539
      ],
      "type": "VEC3"
    },
    {
      "bufferView": 2,
      "byteOffset": 2359152,
      "componentType": 5126,
      "count": 65532,
      "max": [
        0.9999760389328003,
        0.9999927282333374,
        0.9999797344207764
      ],
      "min": [
        -0.9999696016311646,
        -0.9999991655349731,
        -0.9996525645256042
      ],
      "type": "VEC3"
    },
    {
      "bufferView": 1,
      "byteOffset": 524256,
      "componentType": 5126,
      "count": 65532,
      "max": [
        0.9978169798851013,
        0.9950069785118103
      ],
      "min": [
        0.006750999949872494,
        0.023401999846100807
      ],
      "type": "VEC2"
    },
    {
      "bufferView": 0,
      "byteOffset": 1281324,
      "componentType": 5125,
      "count": 306690,
      "type": "SCALAR"
    },
    {
      "bufferView": 2,
      "byteOffset": 3145536,
      "componentType": 5126,
      "count": 65532,
      "max": [
        3.8172099590301514,
        6.690996170043945,
        16.368762969970703
      ],
      "min": [
        -5.372992038726807,
        -5.958125114440918,
        0.026607999578118324
      ],
      "type": "VEC3"
    },
    {
      "bufferView": 2,
      "byteOffset": 3931920,
      "componentType": 5126,
      "count": 65532,
      "max": [
        0.9999995231628418,
        0.9999854564666748,
        0.999996542930603
      ],
      "min": [
        -0.9999958276748657,
        -0.9999750852584839,
        -0.9999547004699707
      ],
      "type": "VEC3"
    },
    {
      "bufferView": 1,
      "byteOffset": 1048512,
      "componentType": 5126,
      "count": 65532,
      "max": [
        0.9976580142974854,
        0.9899799823760986
      ],
      "min": [
        0.006750999949872494,
        0.002176000038161874
      ],
      "type": "VEC2"
    },
    {
      "bufferView": 0,
      "byteOffset": 2508084,
      "componentType": 5125,
      "count": 294408,
      "type": "SCALAR"
    },
    {
      "bufferView": 2,
      "byteOffset": 4718304,
      "componentType": 5126,
      "count": 65532,
      "max": [
        3.6881539821624756,
        6.455505847930908,
        18.12896728515625
      ],
      "min": [
        -4.131374835968018,
        -5.957815170288086,
        0.028092000633478165
      ],
      "type": "VEC3"
    },
    {
      "bufferView": 2,
      "byteOffset": 5504688,
      "componentType": 5126,
      "count": 65532,
      "max": [
        0.9999980926513672,
        0.9999914169311523,
        0.9999982118606567
      ],
      "min": [
        -0.9999992847442627,
        -0.9999929666519165,
        -0.9997304081916809
      ],
      "type": "VEC3"
    },
    {
      "bufferView": 1,
      "byteOffset": 1572768,
      "componentType": 5126,
      "count": 65532,
      "max": [
        0.9978740215301514,
        0.9962630271911621
      ],
      "min": [
        0.0027799999807029963,
        0.0017679999582469463
      ],
      "type": "VEC2"
    },
    {
      "bufferView": 0,
      "byteOffset": 3685716,
      "componentType": 5125,
      "count": 289554,
      "type": "SCALAR"
    },
    {
      "bufferView": 2,
      "byteOffset": 6291072,
      "componentType": 5126,
      "count": 65532,
      "max": [
        2.6790359020233154,
        8.235738754272461,
        14.5830659866333
      ],
      "min": [
        -3.355067014694214,
        -2.689379930496216,
        0.6795989871025085
      ],
      "type": "VEC3"
    },
    {
      "bufferView": 2,
      "byteOffset": 7077456,
      "componentType": 5126,
      "count": 65532,
      "max": [
        0.9999958276748657,
        0.9999961853027344,
        0.9999961853027344
      ],
      "min": [
        -0.9999877214431763,
        -0.9999845027923584,
        -0.9999940395355225
      ],
      "type": "VEC3"
    },
    {
      "bufferView": 1,
      "byteOffset": 2097024,
      "componentType": 5126,
      "count": 65532,
      "max": [
        0.9978320002555847,
        0.9912359714508057
      ],
      "min": [
        0.005495000164955854,
        0.001711999997496605
      ],
      "type": "VEC2"
    },
    {
      "bufferView": 0,
      "byteOffset": 4843932,
      "componentType": 5125,
      "count": 295986,
      "type": "SCALAR"
    },
    {
      "bufferView": 2,
      "byteOffset": 7863840,
      "componentType": 5126,
      "count": 65532,
      "max": [
        1.8559060096740723,
        10.26057243347168,
        18.134674072265625
      ],
      "min": [
        -3.4047369956970215,
        -0.7096920013427734,
        2.267194986343384
      ],
      "type": "VEC3"
    },
    {
      "bufferView": 2,
      "byteOffset": 8650224,
      "componentType": 5126,
      "count": 65532,
      "max": [
        0.9999963045120239,
        0.9999961853027344,
        0.999925971031189
      ],
      "min": [
        -0.999998927116394,
        -0.9999904632568359,
        -0.9999507665634155
      ],
      "type": "VEC3"
    },
    {
      "bufferView": 1,
      "byteOffset": 2621280,
      "componentType": 5126,
      "count": 65532,
      "max": [
        0.9978489875793457,
        0.9962630271911621
      ],
      "min": [
        0.005495000164955854,
        0.015351000241935253
      ],
      "type": "VEC2"
    },
    {
      "bufferView": 0,
      "byteOffset": 6027876,
      "componentType": 5125,
      "count": 267846,
      "type": "SCALAR"
    },
    {
      "bufferView": 2,
      "byteOffset": 9436608,
      "componentType": 5126,
      "count": 65532,
      "max": [
        4.585967063903809,
        10.26181697845459,
        16.14069366455078
      ],
      "min": [
        -2.4584479331970215,
        -7.740678787231445,
        2.267194986343384
      ],
      "type": "VEC3"
    },
    {
      "bufferView": 2,
      "byteOffset": 10222992,
      "componentType": 5126,
      "count": 65532,
      "max": [
        0.9999638795852661,
        0.9999432563781738,
        0.9997594952583313
      ],
      "min": [
        -0.9999974966049194,
        -0.9999934434890747,
        -0.9999507665634155
      ],
      "type": "VEC3"
    },
    {
      "bufferView": 1,
      "byteOffset": 3145536,
      "componentType": 5126,
      "count": 65532,
      "max": [
        0.9978970289230347,
        0.9962630271911621
      ],
      "min": [
        0.005495000164955854,
        0.010866999626159668
      ],
      "type": "VEC2"
    },
    {
      "bufferView": 0,
      "byteOffset": 7099260,
      "componentType": 5125,
      "count": 243195,
      "type": "SCALAR"
    },
    {
      "bufferView": 2,
      "byteOffset": 11009376,
      "componentType": 5126,
      "count": 65532,
      "max": [
        4.151444911956787,
        8.9727201461792,
        15.768485069274902
      ],
      "min": [
        -4.145907878875732,
        -7.766830921173096,
        0.027626000344753265
      ],
      "type": "VEC3"
    },
    {
      "bufferView": 2,
      "byteOffset": 11795760,
      "componentType": 5126,
      "count": 65532,
      "max": [
        0.9999676942825317,
        0.9999880790710449,
        0.999996542930603
      ],
      "min": [
        -0.9999951124191284,
        -0.9999970197677612,
        -0.9997000098228455
      ],
      "type": "VEC3"
    },
    {
      "bufferView": 1,
      "byteOffset": 3669792,
      "componentType": 5126,
      "count": 65532,
      "max": [
        0.9978870153427124,
        0.9874669909477234
      ],
      "min": [
        0.005495000164955854,
        0.016085999086499214
      ],
      "type": "VEC2"
    },
    {
      "bufferView": 0,
      "byteOffset": 8072040,
      "componentType": 5125,
      "count": 259389,
      "type": "SCALAR"
    },
    {
      "bufferView": 2,
      "byteOffset": 12582144,
      "componentType": 5126,
      "count": 58988,
      "max": [
        2.6706418991088867,
        8.607295989990234,
        10.2510986328125
      ],
      "min": [
        -3.774646043777466,
        -5.9384660720825195,
        0.026607999578118324
      ],
      "type": "VEC3"
    },
    {
      "bufferView": 2,
      "byteOffset": 13290000,
      "componentType": 5126,
      "count": 58988,
      "max": [
        0.9999958276748657,
        0.9999998807907104,
        0.9999970197677612
      ],
      "min": [
        -0.9999877214431763,
        -0.9999992847442627,
        -0.9998474717140198
      ],
      "type": "VEC3"
    },
    {
      "bufferView": 1,
      "byteOffset": 4194048,
      "componentType": 5126,
      "count": 58988,
      "max": [
        0.9977650046348572,
        0.9962630271911621
      ],
      "min": [
        0.005495000164955854,
        0.001879999996162951
      ],
      "type": "VEC2"
    },
    {
      "bufferView": 0,
      "byteOffset": 9109596,
      "componentType": 5125,
      "count": 234132,
      "type": "SCALAR"
    },
    {
      "bufferView": 2,
      "byteOffset": 13997856,
      "componentType": 5126,
      "count": 3596,
      "max": [
        3.1771340370178223,
        5.227903842926025,
        0.026607999578118324
      ],
      "min": [
        -4.145801067352295,
        -5.9576239585876465,
        0.026607999578118324
      ],
      "type": "VEC3"
    },
    {
      "bufferView": 2,
      "byteOffset": 14041008,
      "componentType": 5126,
      "count": 3596,
      "max": [
        0.9986312985420227,
        0.3267960846424103,
        0.9995118975639343
      ],
      "min": [
        -0.2720918357372284,
        -0.06379937380552292,
        -1.0
      ],
      "type": "VEC3"
    },
    {
      "bufferView": 1,
      "byteOffset": 4665952,
      "componentType": 5126,
      "count": 3596,
      "max": [
        0.8530679941177368,
        0.7407339811325073
      ],
      "min": [
        0.6710140109062195,
        0.5234419703483582
      ],
      "type": "VEC2"
    },
    {
      "bufferView": 0,
      "byteOffset": 10046124,
      "componentType": 5125,
      "count": 5655,
      "type": "SCALAR"
    }
  ],
  "asset": {
    "extras": {
      "author": "noe-3d.at (https://sketchfab.com/www.noe-3d.at)",
      "license": "CC-BY-NC-4.0 (http://creativecommons.org/licenses/by-nc/4.0/)",
      "source": "https://sketchfab.com/3d-models/kentaur-2e371e8f1e164132966caf7ed7261b53",
      "title": "Kentaur"
    },
    "generator": "Sketchfab-15.12.0",
    "version": "2.0"
  },
  "bufferViews": [
    {
      "buffer": 0,
      "byteLength": 10068744,
      "name": "floatBufferViews",
      "target": 34963
    },
    {
      "buffer": 0,
      "byteLength": 4694720,
      "byteOffset": 10068744,
      "byteStride": 8,
      "name": "floatBufferViews",
      "target": 34962
    },
    {
      "buffer": 0,
      "byteLength": 14084160,
      "byteOffset": 14763464,
      "byteStride": 12,
      "name": "floatBufferViews",
      "target": 34962
    }
  ],
  "buffers": [
    {
      "byteLength": 28847624,
      "uri": "scene.bin"
    }
  ],
  "extensionsUsed": [
    "KHR_materials_specular"
  ],
  "images": [
    {
      "uri": "textures/Kentaur_O_Material_u1_v1_baseColor.png"
    }
  ],
  "materials": [
    {
      "doubleSided": true,
      "extensions": {
        "KHR_materials_specular": {
          "specularColorFactor": [
            1.0,
            1.0,
            1.0
          ],
          "specularFactor": 0.047238239202252806
        }
      },
      "name": "Kentaur_O_Material_u1_v1",
      "pbrMetallicRoughness": {
        "baseColorTexture": {
          "index": 0
        },
        "metallicFactor": 0.13257183259987076,
        "roughnessFactor": 0.9100949640989382
      }
    },
    {
      "doubleSided": true,
      "extensions": {
        "KHR_materials_specular": {
          "specularColorFactor": [
            1.0,
            1.0,
            1.0
          ],
          "specularFactor": 0.0
        }
      },
      "name": "bottom",
      "pbrMetallicRoughness": {
        "baseColorFactor": [
          0.014114267168373202,
          0.02330446952828299,
          0.01667632537979887,
          1.0
        ],
        "metallicFactor": 0.0
      }
    }
  ],
  "meshes": [
    {
      "name": "Object_0",
      "primitives": [
        {
          "attributes": {
            "NORMAL": 1,
            "POSITION": 0,
            "TEXCOORD_0": 2
          },
          "indices": 3,
          "material": 0,
          "mode": 4
        }
      ]
    },
    {
      "name": "Object_1",
      "primitives": [
        {
          "attributes": {
            "NORMAL": 5,
            "POSITION": 4,
            "TEXCOORD_0": 6
          },
          "indices": 7,
          "material": 0,
          "mode": 4
        }
      ]
    },
    {
      "name": "Object_2",
      "primitives": [
        {
          "attributes": {
            "NORMAL": 9,
            "POSITION": 8,
            "TEXCOORD_0": 10
          },
          "indices": 11,
          "material": 0,
          "mode": 4
        }
      ]
    },
    {
      "name": "Object_3",
      "primitives": [
        {
          "attributes": {
            "NORMAL": 13,
            "POSITION": 12,
            "TEXCOORD_0": 14
          },
          "indices": 15,
          "material": 0,
          "mode": 4
        }
      ]
    },
    {
      "name": "Object_4",
      "primitives": [
        {
          "attributes": {
            "NORMAL": 17,
            "POSITION": 16,
            "TEXCOORD_0": 18
          },
          "indices": 19,
          "material": 0,
          "mode": 4
        }
      ]
    },
    {
      "name": "Object_5",
      "primitives": [
        {
          "attributes": {
            "NORMAL": 21,
            "POSITION": 20,
            "TEXCOORD_0": 22
          },
          "indices": 23,
          "material": 0,
          "mode": 4
        }
      ]
    },
    {
      "name": "Object_6",
      "primitives": [
        {
          "attributes": {
            "NORMAL": 25,
            "POSITION": 24,
            "TEXCOORD_0": 26
          },
          "indices": 27,
          "material": 0,
          "mode": 4
        }
      ]
    },
    {
      "name": "Object_7",
      "primitives": [
        {
          "attributes": {
            "NORMAL": 29,
            "POSITION": 28,
            "TEXCOORD_0": 30
          },
          "indices": 31,
          "material": 0,
          "mode": 4
        }
      ]
    },
    {
      "name": "Object_8",
      "primitives": [
        {
          "attributes": {
            "NORMAL": 33,
            "POSITION": 32,
            "TEXCOORD_0": 34
          },
          "indices": 35,
          "material": 0,
          "mode": 4
        }
      ]
    },
    {
      "name": "Object_9",
      "primitives": [
        {
          "attributes": {
            "NORMAL": 37,
            "POSITION": 36,
            "TEXCOORD_0": 38
          },
          "indices": 39,
          "material": 1,
          "mode": 4
        }
      ]
    }
  ],
  "nodes": [
    {
      "children": [
        1
      ],
      "matrix": [
        -0.002427715318837398,
        3.991944968698154e-17,
        -0.17978121873512531,
        0.0,
        -0.17978121873512531,
        -5.390610888416964e-19,
        0.002427715318837398,
        0.0,
        0.0,
        0.17979760468006134,
        3.992308809765118e-17,
        0.0,
        0.0,
        0.0,
        0.0,
        1.0
      ],
      "name": "Sketchfab_model"
    },
    {
      "children": [
        2,
        3,
        4,
        5,
        6,
        7,
        8,
        9,
        10,
        11
      ],
      "name": "Kentaur_C.obj.cleaner.materialmerger.gles"
    },
    {
      "mesh": 0,
      "name": "Object_2"
    },
    {
      "mesh": 1,
      "name": "Object_3"
    },
    {
      "mesh": 2,
      "name": "Object_4"
    },
    {
      "mesh": 3,
      "name": "Object_5"
    },
    {
      "mesh": 4,
      "name": "Object_6"
    },
    {
      "mesh": 5,
      "name": "Object_7"
    },
    {
      "mesh": 6,
      "name": "Object_8"
    },
    {
      "mesh": 7,
      "name": "Object_9"
    },
    {
      "mesh": 8,
      "name": "Object_10"
    },
    {
      "mesh": 9,
      "name": "Object_11"
    }
  ],
  "samplers": [
    {
      "magFilter": 9729,
      "minFilter": 9987,
      "wrapS": 10497,
      "wrapT": 10497
    }
  ],
  "scene": 0,
  "scenes": [
    {
      "name": "Sketchfab_Scene",
      "nodes": [
        0
      ]
    }
  ],
  "textures": [
    {
      "sampler": 0,
      "source": 0
    }
  ]
}
