{
  "accessors": [
    {
      "bufferView": 2,
      "componentType": 5126,
      "count": 52091,
      "max": [
        7.871790885925293,
        25.161081314086914,
        4.029289722442627
      ],
      "min": [
        -7.871994972229004,
        1.2743390798568726,
        -2.79512882232666
      ],
      "type": "VEC3"
    },
    {
      "bufferView": 2,
      "byteOffset": 625092,
      "componentType": 5126,
      "count": 52091,
      "max": [
        0.9999619722366333,
        0.999860942363739,
        0.999984860420227
      ],
      "min": [
        -0.9999980926513672,
        -0.9994955062866211,
        -0.9999958872795105
      ],
      "type": "VEC3"
    },
    {
      "bufferView": 1,
      "componentType": 5126,
      "count": 52091,
      "max": [
        0.999965250492096,
        0.9875038266181946
      ],
      "min": [
        2.1736261714977445e-06,
        3.3855438232421875e-05
      ],
      "type": "VEC2"
    },
    {
      "bufferView": 1,
      "byteOffset": 416728,
      "componentType": 5126,
      "count": 52091,
      "max": [
        0.999965250492096,
        0.9875038266181946
      ],
      "min": [
        2.1736261714977445e-06,
        3.3855438232421875e-05
      ],
      "type": "VEC2"
    },
    {
      "bufferView": 1,
      "byteOffset": 833456,
      "componentType": 5126,
      "count": 52091,
      "max": [
        0.999965250492096,
        0.9875038266181946
      ],
      "min": [
        2.1736261714977445e-06,
        3.3855438232421875e-05
      ],
      "type": "VEC2"
    },
    {
      "bufferView": 1,
      "byteOffset": 1250184,
      "componentType": 5126,
      "count": 52091,
      "max": [
        0.999965250492096,
        0.9875038266181946
      ],
      "min": [
        2.1736261714977445e-06,
        3.3855438232421875e-05
      ],
      "type": "VEC2"
    },
    {
      "bufferView": 1,
      "byteOffset": 1666912,
      "componentType": 5126,
      "count": 52091,
      "max": [
        0.999965250492096,
        0.9875038266181946
      ],
      "min": [
        2.1736261714977445e-06,
        3.3855438232421875e-05
      ],
      "type": "VEC2"
    },
    {
      "bufferView": 1,
      "byteOffset": 2083640,
      "componentType": 5126,
      "count": 52091,
      "max": [
        0.999965250492096,
        0.9875038266181946
      ],
      "min": [
        2.1736261714977445e-06,
        3.3855438232421875e-05
      ],
      "type": "VEC2"
    },
    {
      "bufferView": 1,
      "byteOffset": 2500368,
      "componentType": 5126,
      "count": 52091,
      "max": [
        0.999965250492096,
        0.9875038266181946
      ],
      "min": [
        2.1736261714977445e-06,
        3.3855438232421875e-05
      ],
      "type": "VEC2"
    },
    {
      "bufferView": 1,
      "byteOffset": 2917096,
      "componentType": 5126,
      "count": 52091,
      "max": [
        0.999965250492096,
        0.9875038266181946
      ],
      "min": [
        2.1736261714977445e-06,
        3.3855438232421875e-05
      ],
      "type": "VEC2"
    },
    {
      "bufferView": 1,
      "byteOffset": 3333824,
      "componentType": 5126,
      "count": 52091,
      "max": [
        0.999965250492096,
        0.9875038266181946
      ],
      "min": [
        2.1736261714977445e-06,
        3.3855438232421875e-05
      ],
      "type": "VEC2"
    },
    {
      "bufferView": 1,
      "byteOffset": 3750552,
      "componentType": 5126,
      "count": 52091,
      "max": [
        0.999965250492096,
        0.9875038266181946
      ],
      "min": [
        2.1736261714977445e-06,
        3.3855438232421875e-05
      ],
      "type": "VEC2"
    },
    {
      "bufferView": 0,
      "componentType": 5125,
      "count": 278877,
      "type": "SCALAR"
    }
  ],
  "asset": {
    "extras": {
      "author": "Bad Beetle Entertainment (https://sketchfab.com/blackpantherkali)",
      "license": "CC-BY-4.0 (http://creativecommons.org/licenses/by/4.0/)",
      "source": "https://sketchfab.com/3d-models/spawn-the-nightmare-mcfarlane-toys-2e1dbc4402e94c009bf3edd348d269f3",
      "title": "Spawn - The Nightmare -  McFarlane Toys"
    },
    "generator": "Sketchfab-14.77.0",
    "version": "2.0"
  },
  "bufferViews": [
    {
      "buffer": 0,
      "byteLength": 1115508,
      "name": "floatBufferViews",
      "target": 34963
    },
    {
      "buffer": 0,
      "byteLength": 4167280,
      "byteOffset": 1115508,
      "byteStride": 8,
      "name": "floatBufferViews",
      "target": 34962
    },
    {
      "buffer": 0,
      "byteLength": 1250184,
      "byteOffset": 5282788,
      "byteStride": 12,
      "name": "floatBufferViews",
      "target": 34962
    }
  ],
  "buffers": [
    {
      "byteLength": 6532972,
      "uri": "scene.bin"
    }
  ],
  "extensionsUsed": [
    "KHR_materials_emissive_strength",
    "KHR_materials_clearcoat",
    "KHR_materials_specular"
  ],
  "images": [
    {
      "uri": "textures/b9402e7c-b627-4103-a386-02c4fff148a5_0_baseColor.jpeg"
    }
  ],
  "materials": [
    {
      "doubleSided": true,
      "extensions": {
        "KHR_materials_clearcoat": {
          "clearcoatFactor": 0.1754914511370352,
          "clearcoatRoughnessFactor": 0.5271022681926714
        },
        "KHR_materials_emissive_strength": {
          "emissiveStrength": 10.0
        },
        "KHR_materials_specular": {
          "specularColorFactor": [
            1.0,
            1.0,
            1.0
          ],
          "specularFactor": 0.6087262078663012
        }
      },
      "name": "b9402e7c-b627-4103-a386-02c4fff148a5_0",
      "pbrMetallicRoughness": {
        "baseColorTexture": {
          "index": 0
        },
        "metallicFactor": 0.9540582603316581,
        "roughnessFactor": 0.6
      }
    }
  ],
  "meshes": [
    {
      "name": "b9402e7c-b627-4103-a386-02c4fff148a5_0_b9402e7c-b627-4103-a386-02c4fff148a5_0_0",
      "primitives": [
        {
          "attributes": {
            "NORMAL": 1,
            "POSITION": 0,
            "TEXCOORD_0": 2,
            "TEXCOORD_1": 3,
            "TEXCOORD_2": 4,
            "TEXCOORD_3": 5,
            "TEXCOORD_4": 6,
            "TEXCOORD_5": 7,
            "TEXCOORD_6": 8,
            "TEXCOORD_7": 9,
            "TEXCOORD_8": 10,
            "TEXCOORD_9": 11
          },
          "indices": 12,
          "material": 0,
          "mode": 4
        }
      ]
    }
  ],
  "nodes": [
    {
      "children": [
        1
      ],
      "matrix": [
        1.0,
        0.0,
        0.0,
        0.0,
        0.0,
        2.220446049250313e-16,
        -1.0,
        0.0,
        0.0,
        1.0,
        2.220446049250313e-16,
        0.0,
        0.0,
        0.0,
        0.0,
        1.0
      ],
      "name": "Sketchfab_model"
    },
    {
      "children": [
        2
      ],
      "matrix": [
        0.009999999776482582,
        0.0,
        0.0,
        0.0,
        0.0,
        0.0,
        0.009999999776482582,
        0.0,
        0.0,
        -0.009999999776482582,
        0.0,
        0.0,
        0.0,
        0.0,
        0.0,
        1.0
      ],
      "name": "3Ddata.fbx"
    },
    {
      "children": [
        3
      ],
      "name": "RootNode"
    },
    {
      "children": [
        4
      ],
      "name": "b9402e7c-b627-4103-a386-02c4fff148a5_0"
    },
    {
      "mesh": 0,
      "name": "b9402e7c-b627-4103-a386-02c4fff148a5_0_b9402e7c-b627-4103-a386-02c4fff148a5_0_0"
    }
  ],
  "samplers": [
    {
      "magFilter": 9729,
      "minFilter": 9987,
      "wrapS": 10497,
      "wrapT": 10497
    }
  ],
  "scene": 0,
  "scenes": [
    {
      "name": "Sketchfab_Scene",
      "nodes": [
        0
      ]
    }
  ],
  "textures": [
    {
      "sampler": 0,
      "source": 0
    }
  ]
}
